# xmcd
# Track frame offsets:
# 150
# 11631
# 24964
# 51365
# 63838
# 74768
# 87939
# 99116
# 110043
# 122081
# 132048
# 146514
# 163549
# 174070
# 187896
# 206292
# 218575
# 227945
# 238253
#
# Disc length: 3311 seconds
# Revision: 0
# Processed by: cddbd v1.4PL0 Copyright (c) Steve Scherf et al.
# Submitted via: VisiTrax 2.9.5.180 - For more info visit www.synapsa.com
#
DISCID=fd0ced13
DTITLE=Willie Nelson - Willie Nelson sings the country hits
DYEAR=1997
DGENRE=
TTITLE0=Crazy arms
TTITLE1=Help me make it through the night
TTITLE2=Sunday morning comming down
TTITLE3=Seasons of my heart
TTITLE4=I'd trade all my tomorrows (for just one yesterday)
TTITLE5=Fraulien
TTITLE6=Waltz across Texas
TTITLE7=I'm so lonesome I could cry
TTITLE8=Funny how times slpis away
TTITLE9=Hello walls
TTITLE10=Family bible
TTITLE11=Me and Paul
TTITLE12=Undo the right
TTITLE13=Yours love
TTITLE14=Today I started loving you again
TTITLE15=The wabash cannonball
TTITLE16=Blackjack county chain
TTITLE17=I gotta get drunk
TTITLE18=Bring me sunshine
EXTD=
EXTT0=
EXTT1=
EXTT2=
EXTT3=
EXTT4=
EXTT5=
EXTT6=
EXTT7=
EXTT8=
EXTT9=
EXTT10=
EXTT11=
EXTT12=
EXTT13=
EXTT14=
EXTT15=
EXTT16=
EXTT17=
EXTT18=
PLAYORDER=
